<svg xmlns="http://www.w3.org/2000/svg" xml:space="preserve" fill="#BF5AF2" viewBox="0 0 256 256"><path d="M69.9 115.4c-7 0-12.6 5.6-12.6 12.6s5.6 13.3 12.6 13.3 12.6-5.6 12.6-12.6-5.6-13.3-12.6-13.3zm58.7-32.9c7 0 12.6-5.6 12.6-12.6s-5.6-12.6-12.6-12.6S116 62.9 116 69.9s5.6 12.6 12.6 12.6zm0 91.6c-7 0-12.6 5.6-12.6 12.6s5.6 12.6 12.6 12.6 12.6-5.6 12.6-12.6-5.6-12.6-12.6-12.6zM188.1-.1H69.2C30.7-.1-.1 30.7-.1 68.5v118.9c0 37.8 30.8 68.5 68.5 68.5h118.9c37.8 0 68.5-30.8 68.5-68.5V68.5c.8-37.8-29.9-68.6-67.7-68.6zm-.7 160.9c-5.6 0-11.2-1.4-16.1-4.2L155.9 172c2.8 4.9 4.2 9.8 4.2 16.1 0 17.5-14.7 32.2-32.2 32.2s-32.2-14.7-32.2-32.2 14.7-32.2 32.2-32.2c5.6 0 11.2 1.4 16.1 4.2l15.4-15.4c-1.4-2.1-2.1-4.9-2.8-7.7h-56c-3.5 14-16.1 23.8-30.8 23.8-17.5 0-32.2-14.7-32.2-32.2s14.7-32.2 32.2-32.2c5.6 0 11.2 1.4 16.1 4.2l15.4-15.4c-2.8-4.9-4.2-9.8-4.2-16.1 0-17.5 14.7-32.2 32.2-32.2 17.5 0 31.5 14.7 31.5 32.2s-14.7 32.2-32.2 32.2c-5.6 0-11.2-1.4-16.1-4.2l-14.7 15.4c1.4 2.1 2.1 4.9 2.8 7.7h56c3.5-14 16.1-23.8 30.8-23.8 17.5 0 32.2 14.7 32.2 32.2 0 17.5-14 32.2-32.2 32.2zm0-45.4c-7 0-12.6 5.6-12.6 12.6s5.6 12.6 12.6 12.6S200 135 200 128s-4.9-12.6-12.6-12.6z"/></svg>
